<svg width="128" height="36" viewBox="0 0 128 36" fill="none" xmlns="http://www.w3.org/2000/svg">
<path d="M123.914 35.9993H3.99722C1.79875 35.9993 0 34.3793 0 32.3994V3.59993C0 1.61997 1.79875 0 3.99722 0H123.914C126.112 0 127.911 1.61997 127.911 3.59993V32.3994C127.911 34.3793 126.112 35.9993 123.914 35.9993Z" fill="black"/>
<path d="M26.9813 17.8197C26.9813 15.0297 29.5795 13.6797 29.6794 13.5897C28.1805 11.6998 25.982 11.4298 25.1825 11.3398C23.2839 11.1598 21.3852 12.3298 20.4858 12.3298C19.4865 12.3298 17.9875 11.3398 16.3887 11.3398C14.2901 11.3398 12.3914 12.4198 11.2922 14.1297C9.09372 17.5497 10.6926 22.5896 12.7912 25.3795C13.8904 26.7295 15.0896 28.2595 16.6884 28.1695C18.2873 28.0795 18.8869 27.2695 20.7856 27.2695C22.6843 27.2695 23.1839 28.1695 24.8828 28.1695C26.5816 28.1695 27.6808 26.8195 28.6801 25.4695C29.8793 23.9395 30.3789 22.4096 30.3789 22.3196C30.279 22.2296 26.9813 21.1496 26.9813 17.8197Z" fill="white"/>
<path d="M23.8835 9.53981C24.6829 8.54983 25.2825 7.28985 25.1826 5.93988C23.9834 6.02988 22.3845 6.65987 21.5851 7.64985C20.7856 8.45983 20.0861 9.8098 20.286 11.0698C21.5851 11.1598 22.9841 10.4398 23.8835 9.53981Z" fill="white"/>
<path d="M49.7654 27.9894H47.5669L46.3678 24.5695H42.1707L41.0714 27.9894H38.9729L43.17 16.3797H45.7682L49.7654 27.9894ZM45.968 23.1295L44.8688 20.0696C44.7689 19.7996 44.569 18.9896 44.1693 17.9096C44.0694 18.3596 43.8695 19.1696 43.5697 20.0696L42.4705 23.1295H45.968Z" fill="white"/>
<path d="M60.4581 23.7595C60.4581 25.1995 60.0584 26.2795 59.159 27.1795C58.3596 27.8994 57.4602 28.2594 56.261 28.2594C55.0619 28.2594 54.1625 27.8994 53.6628 27.0895V31.4994H51.5643V22.4995C51.5643 21.5996 51.5643 20.6996 51.4644 19.7096H53.2631L53.363 21.0596C54.0626 20.0696 55.0619 19.5296 56.4609 19.5296C57.5601 19.5296 58.4595 19.8896 59.159 20.6996C60.0584 21.4196 60.4581 22.4095 60.4581 23.7595ZM58.3596 23.7595C58.3596 22.9495 58.1597 22.2295 57.76 21.7796C57.3603 21.2396 56.7607 20.9696 55.9612 20.9696C55.4616 20.9696 54.9619 21.1496 54.5622 21.4196C54.1625 21.6896 53.8627 22.1395 53.7628 22.5895C53.6628 22.8595 53.6628 23.0395 53.6628 23.1295V24.5695C53.6628 25.1995 53.8627 25.6495 54.2624 26.0995C54.6621 26.5495 55.2617 26.7295 55.8613 26.7295C56.6607 26.7295 57.2603 26.4595 57.6601 25.9195C58.1597 25.3795 58.3596 24.6595 58.3596 23.7595Z" fill="white"/>
<path d="M71.1505 23.7595C71.1505 25.1995 70.7508 26.2795 69.8514 27.1795C69.0519 27.8994 68.1526 28.2594 66.9534 28.2594C65.7542 28.2594 64.8549 27.8994 64.3552 27.0895V31.4994H62.2567V22.4995C62.2567 21.5996 62.2567 20.6996 62.1567 19.7096H63.9555L64.0554 21.0596C64.7549 20.0696 65.7542 19.5296 67.1533 19.5296C68.2525 19.5296 69.1519 19.8896 69.8514 20.6996C70.7508 21.4196 71.1505 22.4095 71.1505 23.7595ZM69.052 23.7595C69.052 22.9495 68.8521 22.2295 68.4524 21.7796C68.0526 21.2396 67.4531 20.9696 66.6536 20.9696C66.154 20.9696 65.6543 21.1496 65.2546 21.4196C64.8549 21.6896 64.5551 22.1395 64.4551 22.5895C64.3552 22.8595 64.3552 23.0395 64.3552 23.1295V24.5695C64.3552 25.1995 64.5551 25.6495 64.9548 26.0995C65.3545 26.5495 65.9541 26.7295 66.5537 26.7295C67.3531 26.7295 67.9527 26.4595 68.3524 25.9195C68.8521 25.3795 69.052 24.6595 69.052 23.7595Z" fill="white"/>
<path d="M83.1423 24.7495C83.1423 25.7395 82.7426 26.5495 82.0431 27.1795C81.2436 27.8995 80.0445 28.1694 78.5455 28.1694C77.1465 28.1694 76.0472 27.8995 75.2478 27.4495L75.7475 25.9195C76.6468 26.3695 77.6461 26.6395 78.7454 26.6395C79.5448 26.6395 80.1444 26.4595 80.5441 26.1895C80.9439 25.8295 81.1437 25.4695 81.1437 24.9295C81.1437 24.4795 80.9438 24.0295 80.6441 23.7595C80.2443 23.3995 79.6447 23.1295 78.8453 22.8595C76.5469 22.1396 75.4477 20.9696 75.4477 19.5296C75.4477 18.5396 75.8474 17.8196 76.6468 17.1897C77.4463 16.5597 78.4456 16.2897 79.8446 16.2897C81.0438 16.2897 81.9432 16.4697 82.7426 16.8297L82.2429 18.3596C81.5434 17.9996 80.744 17.8196 79.7447 17.8196C79.0452 17.8196 78.4456 17.9996 78.0459 18.2696C77.7461 18.5396 77.5462 18.8996 77.5462 19.3496C77.5462 19.7996 77.7461 20.1596 78.1458 20.5196C78.4456 20.7896 79.1451 21.0596 80.0445 21.4196C81.1437 21.7796 81.9432 22.3196 82.5427 22.8595C82.8425 23.3095 83.1423 23.9395 83.1423 24.7495Z" fill="white"/>
<path d="M89.9375 21.0596H87.6391V25.1095C87.6391 26.0995 88.0388 26.6395 88.8383 26.6395C89.238 26.6395 89.5378 26.6395 89.7376 26.5495L89.8376 27.9894C89.4379 28.1694 88.9382 28.1694 88.2387 28.1694C87.4392 28.1694 86.7397 27.9894 86.34 27.5395C85.8404 27.0895 85.6405 26.3695 85.6405 25.2895V21.0596H84.2415V19.6196H85.6405V18.0896L87.6391 17.5497V19.6196H89.9375V21.0596Z" fill="white"/>
<path d="M100.23 23.7595C100.23 25.0195 99.8307 26.0995 99.0312 26.9095C98.1319 27.7194 97.0326 28.1694 95.6336 28.1694C94.2346 28.1694 93.1353 27.7194 92.3359 26.9095C91.5365 26.0995 91.1367 25.1095 91.1367 23.8495C91.1367 22.5895 91.5364 21.5096 92.4358 20.6996C93.2353 19.8896 94.4344 19.4396 95.8335 19.4396C97.2325 19.4396 98.3317 19.8896 99.1312 20.6996C99.8307 21.5096 100.23 22.4995 100.23 23.7595ZM98.0319 23.8495C98.0319 23.0395 97.8321 22.4095 97.4323 21.8696C97.0326 21.2396 96.3331 20.8796 95.5337 20.8796C94.7342 20.8796 94.0347 21.2396 93.635 21.8696C93.2353 22.4095 93.0354 23.1295 93.0354 23.8495C93.0354 24.6595 93.2353 25.2895 93.635 25.8295C94.0347 26.4595 94.7342 26.8195 95.5337 26.8195C96.3331 26.8195 96.9327 26.4595 97.4323 25.8295C97.8321 25.2895 98.0319 24.5695 98.0319 23.8495Z" fill="white"/>
<path d="M106.926 21.2396C106.726 21.2396 106.526 21.1496 106.226 21.1496C105.527 21.1496 104.927 21.4196 104.527 21.8696C104.228 22.3196 104.028 22.8595 104.028 23.4895V27.8994H101.929V22.1396C101.929 21.1496 101.929 20.3396 101.829 19.5296H103.628L103.728 21.1496H103.828C104.028 20.6096 104.428 20.1596 104.827 19.7996C105.327 19.5296 105.827 19.3496 106.326 19.3496C106.526 19.3496 106.726 19.3496 106.826 19.3496V21.2396H106.926Z" fill="white"/>
<path d="M116.119 23.3995C116.119 23.7595 116.119 24.0295 116.02 24.2095H109.824C109.824 25.0195 110.124 25.6495 110.723 26.0995C111.223 26.4595 111.922 26.7295 112.722 26.7295C113.621 26.7295 114.521 26.6395 115.22 26.3695L115.52 27.6294C114.62 27.9894 113.621 28.1694 112.422 28.1694C111.023 28.1694 109.824 27.8094 109.024 26.9995C108.225 26.2795 107.825 25.1995 107.825 23.9395C107.825 22.6795 108.225 21.5996 108.924 20.7896C109.724 19.8896 110.823 19.4396 112.222 19.4396C113.521 19.4396 114.62 19.8896 115.22 20.7896C115.92 21.5096 116.119 22.4095 116.119 23.3995ZM114.221 22.9495C114.221 22.4095 114.121 21.9596 113.821 21.5096C113.421 20.9696 112.922 20.6996 112.222 20.6996C111.523 20.6996 111.023 20.9696 110.623 21.4196C110.323 21.7796 110.124 22.3196 110.024 22.8595H114.221V22.9495Z" fill="white"/>
<path d="M45.3685 9.2698C45.3685 10.2598 45.0687 11.0698 44.3692 11.6098C43.7696 12.0597 42.8702 12.3297 41.6711 12.3297C41.0715 12.3297 40.5718 12.3297 40.1721 12.2397V6.65985C40.6718 6.56986 41.2714 6.56985 41.9709 6.56985C43.0701 6.56985 43.8695 6.74985 44.4691 7.19984C44.9688 7.64983 45.3685 8.36982 45.3685 9.2698ZM44.2693 9.2698C44.2693 8.63981 44.0694 8.09983 43.6697 7.73983C43.27 7.37984 42.6704 7.19984 41.9709 7.19984C41.6711 7.19984 41.3713 7.19984 41.1714 7.28984V11.5198C41.2714 11.5198 41.5711 11.5198 41.8709 11.5198C42.6704 11.5198 43.27 11.3398 43.6697 10.9798C44.0694 10.6198 44.2693 9.98979 44.2693 9.2698Z" fill="white"/>
<path d="M50.9647 10.1698C50.9647 10.7998 50.7648 11.3398 50.3651 11.6998C49.9653 12.1497 49.3658 12.3297 48.6663 12.3297C47.9667 12.3297 47.4671 12.1497 47.0674 11.6998C46.6676 11.3398 46.4678 10.7998 46.4678 10.1698C46.4678 9.5398 46.6676 8.99981 47.0674 8.63982C47.4671 8.18982 48.0667 8.00983 48.7662 8.00983C49.4657 8.00983 49.9653 8.18982 50.3651 8.63982C50.7648 8.99981 50.9647 9.5398 50.9647 10.1698ZM49.9653 10.1698C49.9653 9.80979 49.8654 9.4498 49.6656 9.17981C49.4657 8.81981 49.1659 8.72981 48.7662 8.72981C48.3665 8.72981 48.0667 8.90981 47.8668 9.17981C47.6669 9.4498 47.567 9.80979 47.567 10.1698C47.567 10.5298 47.6669 10.8898 47.8668 11.1598C48.0667 11.5198 48.3665 11.6098 48.7662 11.6098C49.1659 11.6098 49.4657 11.4298 49.6656 11.0698C49.8654 10.8898 49.9653 10.5298 49.9653 10.1698Z" fill="white"/>
<path d="M58.6592 8.09982L57.2602 12.2397H56.3608L55.7612 10.4398C55.5614 9.98979 55.4614 9.5398 55.3615 9.0898C55.2616 9.5398 55.1616 9.98979 54.9618 10.4398L54.3622 12.2397H53.4628L51.9639 8.09982H52.9632L53.4628 10.0798C53.5628 10.5298 53.6627 10.9798 53.7626 11.4298C53.8626 11.0698 53.9625 10.6198 54.1623 10.0798L54.7619 8.09982H55.5614L56.161 9.98979C56.3608 10.4398 56.4608 10.8898 56.5607 11.3398C56.6606 10.8898 56.7605 10.4398 56.8605 9.98979L57.4601 8.09982H58.6592Z" fill="white"/>
<path d="M63.8555 12.2397H62.8562V9.89979C62.8562 9.17981 62.5564 8.81981 61.9569 8.81981C61.6571 8.81981 61.4572 8.90981 61.2574 9.08981C61.0575 9.26981 60.9576 9.5398 60.9576 9.80979V12.2397H59.9583V9.2698C59.9583 8.90981 59.9583 8.54982 59.9583 8.09983H60.8576V8.72982C60.9576 8.54982 61.1574 8.36982 61.3573 8.18983C61.6571 8.00983 61.9569 7.91983 62.2567 7.91983C62.6564 7.91983 63.0561 8.00983 63.3559 8.27982C63.7556 8.54982 63.8555 8.99981 63.8555 9.6298V12.2397Z" fill="white"/>
<path d="M66.6543 12.2398H65.6543V6.20987H66.6543V12.2398Z" fill="white"/>
<path d="M72.6495 10.1698C72.6495 10.7998 72.4496 11.3398 72.0499 11.6998C71.6502 12.1497 71.0506 12.3297 70.3511 12.3297C69.6515 12.3297 69.1519 12.1497 68.7522 11.6998C68.3524 11.3398 68.1526 10.7998 68.1526 10.1698C68.1526 9.5398 68.3524 8.99981 68.7522 8.63982C69.1519 8.27982 69.7515 8.00983 70.451 8.00983C71.1505 8.00983 71.6502 8.18982 72.0499 8.63982C72.4496 8.99981 72.6495 9.5398 72.6495 10.1698ZM71.6502 10.1698C71.6502 9.80979 71.5502 9.4498 71.3504 9.17981C71.1505 8.81981 70.8507 8.72981 70.451 8.72981C70.0513 8.72981 69.7515 8.90981 69.5516 9.17981C69.3518 9.4498 69.2518 9.80979 69.2518 10.1698C69.2518 10.5298 69.3518 10.8898 69.5516 11.1598C69.7515 11.5198 70.0513 11.6098 70.451 11.6098C70.8507 11.6098 71.1505 11.4298 71.3504 11.0698C71.5502 10.8898 71.6502 10.5298 71.6502 10.1698Z" fill="white"/>
<path d="M77.5461 12.2397H76.6467L76.5468 11.7898C76.247 12.1497 75.7473 12.3297 75.2477 12.3297C74.8479 12.3297 74.4482 12.2397 74.2484 11.9697C74.0485 11.6998 73.8486 11.4298 73.8486 11.1598C73.8486 10.6198 74.0485 10.2598 74.5482 9.98979C75.0478 9.71979 75.6474 9.6298 76.5468 9.6298V9.5398C76.5468 8.99981 76.247 8.72981 75.6474 8.72981C75.1477 8.72981 74.8479 8.81981 74.4482 8.99981L74.2484 8.36982C74.6481 8.09982 75.1477 8.00983 75.8472 8.00983C77.0464 8.00983 77.646 8.54982 77.646 9.71979V11.2498C77.5461 11.6998 77.5461 11.9697 77.5461 12.2397ZM76.5468 10.7998V10.1698C75.4475 10.1698 74.8479 10.4398 74.8479 10.9798C74.8479 11.1598 74.9479 11.3398 75.0478 11.4298C75.1477 11.5198 75.3476 11.6098 75.5475 11.6098C75.7473 11.6098 75.9472 11.5198 76.147 11.4298C76.3469 11.3398 76.4468 11.1598 76.5468 10.9798C76.5468 10.9798 76.5468 10.8898 76.5468 10.7998Z" fill="white"/>
<path d="M83.3422 12.2397H82.4428V11.6098C82.143 12.1498 81.6434 12.3298 80.9438 12.3298C80.3443 12.3298 79.9445 12.1498 79.5448 11.7898C79.1451 11.4298 79.0452 10.8898 79.0452 10.2598C79.0452 9.6298 79.245 9.08981 79.6447 8.63982C80.0445 8.27983 80.5441 8.09983 81.0438 8.09983C81.6434 8.09983 82.0431 8.27983 82.3429 8.63982V6.29987H83.3422V11.1598C83.3422 11.5198 83.3422 11.8798 83.3422 12.2397ZM82.3429 10.5298V9.8098C82.3429 9.7198 82.3429 9.6298 82.3429 9.5398C82.2429 9.35981 82.143 9.17981 81.9431 8.99981C81.7433 8.81982 81.5434 8.81982 81.2436 8.81982C80.8439 8.81982 80.5441 8.99981 80.3443 9.26981C80.1444 9.5398 80.0445 9.8998 80.0445 10.3498C80.0445 10.7998 80.1444 11.0698 80.3443 11.3398C80.5441 11.6098 80.8439 11.7898 81.2436 11.7898C81.5434 11.7898 81.8432 11.6998 82.0431 11.4298C82.2429 11.0698 82.3429 10.7998 82.3429 10.5298Z" fill="white"/>
<path d="M92.0362 10.1698C92.0362 10.7998 91.8363 11.3398 91.4366 11.6998C91.0369 12.1497 90.4373 12.3297 89.7378 12.3297C89.0383 12.3297 88.5386 12.1497 88.1389 11.6998C87.7392 11.3398 87.5393 10.7998 87.5393 10.1698C87.5393 9.5398 87.7392 8.99981 88.1389 8.63982C88.5386 8.18982 89.1382 8.00983 89.8377 8.00983C90.5372 8.00983 91.0369 8.18982 91.4366 8.63982C91.8363 8.99981 92.0362 9.5398 92.0362 10.1698ZM90.9369 10.1698C90.9369 9.80979 90.837 9.4498 90.6371 9.17981C90.4373 8.81981 90.1375 8.72981 89.7378 8.72981C89.3381 8.72981 89.0383 8.90981 88.8384 9.17981C88.6385 9.4498 88.5386 9.80979 88.5386 10.1698C88.5386 10.5298 88.6385 10.8898 88.8384 11.1598C89.0383 11.5198 89.3381 11.6098 89.7378 11.6098C90.1375 11.6098 90.4373 11.4298 90.6371 11.0698C90.837 10.8898 90.9369 10.5298 90.9369 10.1698Z" fill="white"/>
<path d="M97.5323 12.2397H96.533V9.89979C96.533 9.17981 96.2332 8.81981 95.6336 8.81981C95.3338 8.81981 95.134 8.90981 94.9341 9.08981C94.7342 9.26981 94.6343 9.5398 94.6343 9.80979V12.2397H93.635V9.2698C93.635 8.90981 93.635 8.54982 93.635 8.09983H94.5344V8.72982C94.6343 8.54982 94.8342 8.36982 95.034 8.18983C95.3338 8.00983 95.6336 7.91983 95.9334 7.91983C96.3331 7.91983 96.7329 8.00983 97.0327 8.27982C97.4324 8.54982 97.5323 8.99981 97.5323 9.6298V12.2397Z" fill="white"/>
<path d="M104.328 8.81983H103.228V10.7998C103.228 11.3398 103.428 11.5198 103.828 11.5198C104.028 11.5198 104.128 11.5198 104.328 11.5198V12.2398C104.128 12.3298 103.828 12.3298 103.528 12.3298C103.128 12.3298 102.829 12.2398 102.629 11.9698C102.429 11.7898 102.329 11.3398 102.329 10.8898V8.81983H101.629V8.09984H102.329V7.37986L103.328 7.10986V8.09984H104.427V8.81983H104.328Z" fill="white"/>
<path d="M109.724 12.2398H108.724V9.8998C108.724 9.17981 108.425 8.81982 107.825 8.81982C107.325 8.81982 107.026 8.99982 106.826 9.44981C106.826 9.53981 106.826 9.6298 106.826 9.8098V12.2398H105.826V6.20987H106.826V8.72982C107.126 8.27983 107.625 8.00983 108.225 8.00983C108.624 8.00983 109.024 8.09983 109.224 8.36983C109.524 8.63982 109.724 9.17981 109.724 9.7198V12.2398Z" fill="white"/>
<path d="M115.22 9.98979C115.22 10.1698 115.22 10.2598 115.22 10.4398H112.222C112.222 10.8898 112.422 11.1598 112.622 11.3398C112.921 11.5198 113.221 11.6098 113.621 11.6098C114.121 11.6098 114.52 11.5198 114.82 11.4298L115.02 12.0597C114.62 12.2397 114.121 12.3297 113.521 12.3297C112.822 12.3297 112.222 12.1497 111.822 11.7898C111.423 11.4298 111.223 10.8898 111.223 10.2598C111.223 9.62979 111.423 9.0898 111.822 8.72981C112.222 8.27982 112.722 8.09982 113.421 8.09982C114.121 8.09982 114.62 8.27982 114.92 8.72981C115.12 8.99981 115.22 9.4498 115.22 9.98979ZM114.321 9.71979C114.321 9.4498 114.221 9.1798 114.121 8.99981C113.921 8.72981 113.721 8.63981 113.321 8.63981C113.021 8.63981 112.722 8.72981 112.522 8.99981C112.322 9.1798 112.222 9.4498 112.222 9.71979H114.321Z" fill="white"/>
</svg>
