<svg width="13" height="24" viewBox="0 0 13 24" fill="none" xmlns="http://www.w3.org/2000/svg">
<path d="M9.0424 0C7.41231 0 6.00416 0.520142 5.01577 1.54789C4.02737 2.57565 3.48923 4.082 3.48923 5.93071V8.34783H0.498461C0.366265 8.34784 0.239487 8.40281 0.146011 8.50066C0.052534 8.5985 1.32176e-05 8.7312 0 8.86957L0 13.0435C1.32176e-05 13.1818 0.052534 13.3145 0.146011 13.4124C0.239487 13.5102 0.366265 13.5652 0.498461 13.5652H3.48923L3.48923 23.4783C3.48924 23.6166 3.54176 23.7493 3.63524 23.8472C3.72872 23.945 3.85549 24 3.98769 24H7.97538C8.10758 24 8.23435 23.945 8.32783 23.8472C8.42131 23.7493 8.47383 23.6166 8.47384 23.4783V13.5652H11.9631C12.0845 13.5652 12.2017 13.5188 12.2928 13.4348C12.3838 13.3507 12.4424 13.2348 12.4576 13.1087L12.9561 8.93478C12.9649 8.86134 12.9587 8.78677 12.9379 8.71603C12.9171 8.64529 12.8821 8.57999 12.8354 8.52448C12.7886 8.46896 12.7311 8.4245 12.6666 8.39404C12.6022 8.36359 12.5322 8.34783 12.4615 8.34783H8.47384V6.26087C8.47384 5.67826 8.91415 5.21739 9.47076 5.21739H12.4615C12.5937 5.21738 12.7205 5.1624 12.814 5.06456C12.9075 4.96672 12.96 4.83402 12.96 4.69565V0.702106C12.9598 0.575666 12.9158 0.453585 12.8361 0.358556C12.7565 0.263528 12.6465 0.202019 12.5268 0.185462C12.0863 0.124289 10.4962 0 9.0424 0ZM9.0424 1.04348C10.2576 1.04348 11.4323 1.14524 11.9631 1.19735V4.17391H9.47076C8.37548 4.17391 7.47692 5.11443 7.47692 6.26087V8.86957C7.47693 9.00793 7.52945 9.14063 7.62293 9.23847C7.71641 9.33632 7.84318 9.39129 7.97538 9.3913H11.8969L11.523 12.5217H7.97538C7.84318 12.5218 7.71641 12.5767 7.62293 12.6746C7.52945 12.7724 7.47693 12.9051 7.47692 13.0435V22.9565H4.48615V13.0435C4.48614 12.9051 4.43362 12.7724 4.34014 12.6746C4.24666 12.5767 4.11989 12.5218 3.98769 12.5217H0.996922V9.3913H3.98769C4.11989 9.39129 4.24666 9.33632 4.34014 9.23847C4.43362 9.14063 4.48614 9.00793 4.48615 8.86957V5.93071C4.48615 4.29003 4.94489 3.0923 5.71867 2.2877C6.49246 1.48311 7.61144 1.04348 9.0424 1.04348Z" fill="white"/>
</svg>
