<svg width="129" height="36" viewBox="0 0 129 36" fill="none" xmlns="http://www.w3.org/2000/svg">
<path d="M124.81 35.9993H4.8931C2.69462 35.9993 0.895874 34.3793 0.895874 32.3994V3.59993C0.895874 1.61997 2.69462 0 4.8931 0H124.81C127.008 0 128.807 1.61997 128.807 3.59993V32.3994C128.807 34.3793 127.008 35.9993 124.81 35.9993Z" fill="black"/>
<path fill-rule="evenodd" clip-rule="evenodd" d="M10.6891 17.6397V8.18984C10.6891 7.64985 11.1887 7.19986 11.6884 7.19986C12.188 7.19986 12.3879 7.28986 12.6877 7.46985L31.9743 17.0097C32.374 17.1897 32.5739 17.4597 32.5739 17.7297C32.5739 17.9997 32.374 18.2696 31.9743 18.4496L12.6877 27.9895C12.4878 28.0795 12.188 28.2595 11.6884 28.2595C11.1887 28.2595 10.6891 27.8095 10.6891 27.2695V17.6397Z" fill="url(#paint0_linear_54_934)"/>
<path fill-rule="evenodd" clip-rule="evenodd" d="M23.1804 17.7297L11.4885 7.19986C11.5885 7.19986 11.5885 7.19986 11.6884 7.19986C12.188 7.19986 12.3879 7.28986 12.6877 7.46985L26.8778 14.4897L23.1804 17.7297Z" fill="url(#paint1_linear_54_934)"/>
<path fill-rule="evenodd" clip-rule="evenodd" d="M26.7779 20.8796L23.1804 17.6397L26.8778 14.3097L31.9743 16.8297C32.374 17.0097 32.5739 17.2797 32.5739 17.5497C32.5739 17.8197 32.374 18.0896 31.9743 18.2696L26.7779 20.8796Z" fill="url(#paint2_linear_54_934)"/>
<path fill-rule="evenodd" clip-rule="evenodd" d="M11.5885 28.0794L23.1805 17.6396L26.7779 20.8796L12.6877 27.8095C12.388 27.9895 12.1881 28.0794 11.5885 28.0794C11.6884 28.0794 11.6884 28.0794 11.5885 28.0794Z" fill="url(#paint3_linear_54_934)"/>
<path fill-rule="evenodd" clip-rule="evenodd" d="M71.9465 30.5094C71.4468 30.1494 71.0471 29.5194 70.8473 29.1594L72.4462 28.5294C72.5461 28.7094 72.7459 28.9794 72.9458 29.2494C73.3455 29.6094 73.9451 29.9694 74.5447 29.9694C75.1443 29.9694 75.8438 29.6994 76.2435 29.2494C76.5433 28.7994 76.7432 28.3494 76.7432 27.7195V27.1795C75.544 28.5294 73.0457 28.3494 71.6467 26.9095C70.1477 25.4695 70.1477 23.0395 71.6467 21.5996C73.1456 20.2496 75.3441 20.0696 76.6432 21.3296V20.6996H78.3421V27.4495C78.3421 29.1594 77.6425 30.1494 76.7432 30.7794C76.1436 31.2294 75.2442 31.4094 74.4448 31.4094C73.5454 31.3194 72.646 31.0494 71.9465 30.5094ZM113.817 30.8694L115.516 27.2695L112.518 21.0596H114.217L116.316 25.4695L118.414 21.0596H120.113L115.516 30.8694H113.817ZM105.723 27.4495C105.223 26.9995 105.024 26.3695 105.024 25.7395C105.024 25.1995 105.223 24.6595 105.623 24.2995C106.323 23.6695 107.322 23.3995 108.421 23.3995C109.121 23.3995 109.72 23.4895 110.22 23.7595C110.22 22.6796 109.221 22.2296 108.421 22.2296C107.722 22.2296 107.022 22.5896 106.722 23.2195L105.223 22.6796C105.523 22.0496 106.323 20.8796 108.321 20.8796C109.321 20.8796 110.32 21.1496 110.919 21.7796C111.519 22.4096 111.719 23.1295 111.719 24.1195V27.8995H110.02V27.2695C109.82 27.5395 109.42 27.7195 109.121 27.8995C108.721 28.0794 108.221 28.1694 107.722 28.1694C107.122 28.0794 106.223 27.8995 105.723 27.4495ZM52.46 24.2095C52.46 22.4096 53.959 20.4296 56.6571 20.4296C59.2553 20.4296 60.8542 22.4096 60.8542 24.2095C60.8542 26.0095 59.3552 27.9894 56.6571 27.9894C53.959 27.9894 52.46 26.0095 52.46 24.2095ZM61.4538 24.2095C61.4538 22.4096 62.9527 20.4296 65.6509 20.4296C68.2491 20.4296 69.8479 22.4096 69.8479 24.2095C69.8479 26.0095 68.349 27.9894 65.6509 27.9894C63.0527 27.9894 61.4538 26.0095 61.4538 24.2095ZM41.1679 26.1895C38.6696 23.9395 38.7695 20.2496 41.2678 17.9096C42.5669 16.7397 44.1658 16.1997 45.8646 16.1997C47.4635 16.1997 49.0624 16.7397 50.2615 17.8196L49.0624 18.9896C47.2636 17.3697 44.3657 17.4597 42.6668 19.0796C40.8681 20.7896 40.8681 23.3995 42.6668 25.1095C44.4656 26.8195 47.4635 26.9095 49.2622 25.1995C49.8618 24.6595 50.0617 23.9395 50.1616 23.2195H45.9645V21.5996H51.8604C51.9604 21.9596 51.9604 22.4096 51.9604 22.8595C51.9604 24.2095 51.3608 25.5595 50.3615 26.4595C49.2622 27.4495 47.6634 27.9894 46.0645 27.9894C44.2657 27.8994 42.467 27.3595 41.1679 26.1895ZM83.4385 26.8195C81.9396 25.3795 81.9396 22.9495 83.4385 21.4196C84.9375 19.9796 87.4357 19.9796 88.8348 21.4196C89.3344 21.8696 89.6342 22.4996 89.934 23.1295L84.4378 25.1995C84.7376 25.8295 85.4371 26.3695 86.4364 26.3695C87.3358 26.3695 87.9354 26.0995 88.535 25.2895L90.0339 26.1895C89.8341 26.3695 89.6342 26.5495 89.5343 26.7295C87.8355 28.2594 84.9375 28.2594 83.4385 26.8195ZM93.8313 27.8995V17.9096H97.4288C99.5273 17.9096 101.226 19.2596 101.226 20.8796C101.226 22.4996 99.7272 23.8495 97.8285 23.8495H95.63V27.8095H93.8313V27.8995ZM102.225 27.8995V17.9096H103.924V27.8995H102.225ZM79.6411 27.7195V16.5597H81.4399V27.7195H79.6411ZM110.12 24.9295C109.72 24.6595 109.121 24.5695 108.521 24.5695C107.322 24.5695 106.622 25.1095 106.622 25.7395C106.622 26.3695 107.322 26.7295 108.021 26.7295C109.021 26.7295 110.12 26.0095 110.12 24.9295ZM58.9555 24.2095C58.9555 23.1295 58.1561 21.9596 56.6571 21.9596C55.1582 21.9596 54.3587 23.1295 54.3587 24.2095C54.3587 25.2895 55.1582 26.4595 56.6571 26.4595C58.0561 26.4595 58.9555 25.2895 58.9555 24.2095ZM67.9493 24.2095C67.9493 23.1295 67.1498 21.9596 65.6509 21.9596C64.1519 21.9596 63.3525 23.1295 63.3525 24.2095C63.3525 25.2895 64.1519 26.4595 65.6509 26.4595C67.1498 26.4595 67.9493 25.2895 67.9493 24.2095ZM76.8431 24.8395C76.8431 24.7495 76.8431 24.6595 76.943 24.5695C76.943 24.4795 76.943 24.2995 76.943 24.2095C76.943 24.1195 76.943 23.9395 76.943 23.8495V23.7595C76.943 23.6695 76.8431 23.4895 76.8431 23.3995C76.5433 22.4996 75.6439 21.8696 74.7445 21.8696C73.5454 21.8696 72.5461 22.9495 72.5461 24.1195C72.5461 25.3795 73.5454 26.3695 74.8445 26.3695C75.6439 26.4595 76.4434 25.8295 76.8431 24.8395ZM84.138 24.0295L87.8355 22.5896C87.4357 21.9596 86.8362 21.7796 86.3365 21.7796C84.8375 21.8696 83.9382 23.3095 84.138 24.0295ZM99.4274 20.9696C99.4274 20.0696 98.628 19.4396 97.5287 19.4396H95.5301V22.5896H97.6286C98.628 22.5896 99.4274 21.8696 99.4274 20.9696Z" fill="white"/>
<path fill-rule="evenodd" clip-rule="evenodd" d="M115.117 29.0704H115.017V28.9794H115.117H115.017V29.0704H115.117Z" fill="white"/>
<path fill-rule="evenodd" clip-rule="evenodd" d="M115.316 29.0704C115.316 28.9794 115.316 28.9794 115.316 29.0704C115.216 28.9794 115.216 28.9794 115.316 29.0704C115.216 29.0704 115.216 29.0704 115.316 29.0704ZM115.316 28.9794C115.316 29.0704 115.316 29.0704 115.316 28.9794C115.216 29.0704 115.316 29.0704 115.316 28.9794C115.316 28.9794 115.216 28.9794 115.316 28.9794Z" fill="white"/>
<path fill-rule="evenodd" clip-rule="evenodd" d="M115.416 28.9794H115.316H115.416V29.0704V28.9794Z" fill="white"/>
<path d="M39.7689 9.08981C39.7689 7.46984 41.068 6.47986 42.6669 6.47986C43.7662 6.47986 44.4657 6.92985 44.9653 7.55984L44.1659 8.00983C43.8661 7.64983 43.3664 7.37984 42.6669 7.37984C41.5677 7.37984 40.7682 8.09983 40.7682 9.17981C40.7682 10.2598 41.5677 10.9798 42.6669 10.9798C43.2665 10.9798 43.7662 10.7098 43.966 10.5298V9.71979H42.3671V8.90981H45.0652V10.7998C44.5656 11.3398 43.7661 11.6998 42.7668 11.6998C41.068 11.6998 39.7689 10.6198 39.7689 9.08981Z" fill="white"/>
<path d="M46.2644 11.6098V6.56985H50.0618V7.37984H47.1638V8.63982H49.9618V9.4498H47.1638V10.8898H50.0618V11.6998L46.2644 11.6098Z" fill="white"/>
<path d="M52.8598 11.6098V7.37984H51.161V6.56985H55.558V7.37984H53.8591V11.6098H52.8598Z" fill="white"/>
<path d="M58.9556 11.6098V6.56985H59.9556V11.6098H58.9556Z" fill="white"/>
<path d="M62.653 11.6098V7.37984H60.9542V6.56985H65.3512V7.37984H63.6523V11.6098H62.653Z" fill="white"/>
<path d="M68.5488 9.08981C68.5488 7.55984 69.748 6.47986 71.4468 6.47986C73.1456 6.47986 74.3448 7.55984 74.3448 9.08981C74.3448 10.6198 73.1456 11.6998 71.4468 11.6998C69.748 11.6998 68.5488 10.5298 68.5488 9.08981ZM73.2456 9.08981C73.2456 8.00983 72.5461 7.28984 71.3469 7.28984C70.2477 7.28984 69.4482 8.09983 69.4482 9.08981C69.4482 10.1698 70.1477 10.8898 71.3469 10.8898C72.5461 10.8898 73.2456 10.0798 73.2456 9.08981Z" fill="white"/>
<path d="M79.3414 11.6098L76.4434 8.00983V11.6098H75.4441V6.56985H76.4434L79.3414 10.0798V6.56985H80.3407V11.6098H79.3414Z" fill="white"/>
<defs>
<linearGradient id="paint0_linear_54_934" x1="17.152" y1="5.91612" x2="21.738" y2="26.8287" gradientUnits="userSpaceOnUse">
<stop stop-color="#006884"/>
<stop offset="1" stop-color="#8AD1D0"/>
</linearGradient>
<linearGradient id="paint1_linear_54_934" x1="10.33" y1="8.85925" x2="24.8126" y2="17.5527" gradientUnits="userSpaceOnUse">
<stop stop-color="#24BBB6"/>
<stop offset="1" stop-color="#DBE692"/>
</linearGradient>
<linearGradient id="paint2_linear_54_934" x1="27.8716" y1="21.2577" x2="27.8716" y2="14.1043" gradientUnits="userSpaceOnUse">
<stop stop-color="#FCC072"/>
<stop offset="1" stop-color="#F58A5B"/>
</linearGradient>
<linearGradient id="paint3_linear_54_934" x1="13.282" y1="29.9416" x2="24.0495" y2="17.7741" gradientUnits="userSpaceOnUse">
<stop stop-color="#712B8F"/>
<stop offset="1" stop-color="#EA1D27"/>
</linearGradient>
</defs>
</svg>
