<svg width="46" height="62" viewBox="0 0 46 62" fill="none" xmlns="http://www.w3.org/2000/svg">
<path d="M23.27 0C10.8721 0 0.785645 10.0728 0.785645 22.454C0.785645 37.8193 20.907 60.3766 21.7637 61.3293C22.5683 62.2243 23.9732 62.2228 24.7764 61.3293C25.6331 60.3766 45.7544 37.8193 45.7544 22.454C45.7542 10.0728 35.6679 0 23.27 0ZM23.27 33.7512C17.0323 33.7512 11.9577 28.6833 11.9577 22.454C11.9577 16.2246 17.0324 11.1569 23.27 11.1569C29.5076 11.1569 34.5822 16.2248 34.5822 22.4541C34.5822 28.6834 29.5076 33.7512 23.27 33.7512Z" fill="#06B8BE"/>
</svg>
