<svg width="44" height="18" viewBox="0 0 44 18" fill="none" xmlns="http://www.w3.org/2000/svg">
<path d="M6.363 6.7V13H5.463V10.192H1.845V13H0.945V6.7H1.845V9.409H5.463V6.7H6.363ZM8.11371 6.7H9.01371V13H8.11371V6.7ZM12.0158 7.483H9.85584V6.7H15.0668V7.483H12.9068V13H12.0158V7.483ZM17.669 13.072C17.195 13.072 16.736 13 16.292 12.856C15.854 12.706 15.509 12.514 15.257 12.28L15.59 11.578C15.83 11.794 16.136 11.971 16.508 12.109C16.886 12.241 17.273 12.307 17.669 12.307C18.191 12.307 18.581 12.22 18.839 12.046C19.097 11.866 19.226 11.629 19.226 11.335C19.226 11.119 19.154 10.945 19.01 10.813C18.872 10.675 18.698 10.57 18.488 10.498C18.284 10.426 17.993 10.345 17.615 10.255C17.141 10.141 16.757 10.027 16.463 9.913C16.175 9.799 15.926 9.625 15.716 9.391C15.512 9.151 15.41 8.83 15.41 8.428C15.41 8.092 15.497 7.789 15.671 7.519C15.851 7.249 16.121 7.033 16.481 6.871C16.841 6.709 17.288 6.628 17.822 6.628C18.194 6.628 18.56 6.676 18.92 6.772C19.28 6.868 19.589 7.006 19.847 7.186L19.55 7.906C19.286 7.738 19.004 7.612 18.704 7.528C18.404 7.438 18.11 7.393 17.822 7.393C17.312 7.393 16.928 7.486 16.67 7.672C16.418 7.858 16.292 8.098 16.292 8.392C16.292 8.608 16.364 8.785 16.508 8.923C16.652 9.055 16.829 9.16 17.039 9.238C17.255 9.31 17.546 9.388 17.912 9.472C18.386 9.586 18.767 9.7 19.055 9.814C19.343 9.928 19.589 10.102 19.793 10.336C20.003 10.57 20.108 10.885 20.108 11.281C20.108 11.611 20.018 11.914 19.838 12.19C19.658 12.46 19.385 12.676 19.019 12.838C18.653 12.994 18.203 13.072 17.669 13.072Z" fill="#06B8BE"/>
<g clip-path="url(#clip0_54_2075)">
<path d="M34.9997 0C30.0296 0.00112496 26.0011 4.02962 26 8.99972C26.0011 13.9709 30.0296 17.9994 34.9997 18C39.9709 17.9989 43.9994 13.9709 44 8.99972C43.9989 4.02962 39.9709 0.00112496 34.9997 0ZM34.9997 16.8739C30.6506 16.8666 27.1334 13.3488 27.125 8.99972C27.1334 4.6506 30.6506 1.1334 34.9997 1.12496C39.35 1.1334 42.8666 4.6506 42.8745 8.99972C42.8666 13.3488 39.3488 16.8666 34.9997 16.8739Z" fill="#06B8BE"/>
<path d="M34.9998 5.62549C33.1358 5.62549 31.6255 7.13575 31.6255 8.99982C31.6255 10.8628 33.1358 12.3747 34.9998 12.3747C36.8628 12.3747 38.3747 10.8628 38.3747 8.99982C38.3747 7.13575 36.8628 5.62549 34.9998 5.62549ZM34.9998 11.2503C33.7573 11.2469 32.7527 10.2423 32.7505 8.99982C32.7527 7.7573 33.7573 6.7527 34.9998 6.75045C36.2423 6.7527 37.2469 7.7573 37.2503 8.99982C37.2469 10.2423 36.2423 11.2469 34.9998 11.2503Z" fill="#06B8BE"/>
<path d="M35.0002 10.1252C35.6215 10.1252 36.1252 9.62151 36.1252 9.00021C36.1252 8.37891 35.6215 7.87524 35.0002 7.87524C34.3789 7.87524 33.8752 8.37891 33.8752 9.00021C33.8752 9.62151 34.3789 10.1252 35.0002 10.1252Z" fill="#06B8BE"/>
</g>
<defs>
<clipPath id="clip0_54_2075">
<rect width="18" height="18" fill="white" transform="translate(26)"/>
</clipPath>
</defs>
</svg>
