<svg width="54" height="53" viewBox="0 0 54 53" fill="none" xmlns="http://www.w3.org/2000/svg">
<path d="M52.4531 42.1435L46.5816 38.2261L41.362 34.7446C40.3547 34.0739 39.0009 34.2938 38.2573 35.249L35.0275 39.404C34.3337 40.3056 33.0857 40.5647 32.0908 40.0135C29.8992 38.7936 27.3077 37.645 21.5896 31.9156C15.8715 26.1861 14.7163 23.6001 13.4972 21.4071C12.9464 20.4115 13.2053 19.1626 14.1063 18.4684L18.2584 15.2364C19.2129 14.4923 19.4327 13.1376 18.7625 12.1295L15.3902 7.06714L11.3687 1.03059C10.6842 0.00310758 9.31401 -0.305365 8.25579 0.329695L3.61783 3.11403C2.36442 3.85301 1.44305 5.04633 1.04459 6.44657C-0.223718 11.074 -0.479428 21.2818 15.8687 37.6413C32.2167 54.0007 42.4166 53.7439 47.0408 52.4747C48.4401 52.076 49.6326 51.154 50.3711 49.8996L53.1535 45.2586C53.7882 44.1995 53.4799 42.8285 52.4531 42.1435Z" fill="#06B8BE"/>
</svg>
