<svg width="8" height="7" viewBox="0 0 8 7" fill="none" xmlns="http://www.w3.org/2000/svg">
<path d="M3.10528 0.810969C3.04728 0.786476 2.97883 0.798045 2.93252 0.840424L1.28819 2.33698H0.168213C0.0799592 2.33698 0.00854492 2.4058 0.00854492 2.49083V4.64491C0.00854492 4.72996 0.0799592 4.79878 0.168213 4.79878H1.28819L2.93253 6.29533C2.96278 6.32298 3.00223 6.33741 3.04215 6.33741C3.06351 6.33741 3.08503 6.33336 3.1053 6.32479C3.16393 6.3006 3.20181 6.24501 3.20181 6.18354V0.952215C3.2018 0.890752 3.16391 0.835159 3.10528 0.810969Z" fill="white"/>
<path d="M3.93703 2.70551L3.70953 2.92475C3.65706 2.97531 3.64307 3.05699 3.68688 3.11469C3.78341 3.2419 3.84046 3.3986 3.84046 3.56788C3.84046 3.73717 3.78341 3.89387 3.68688 4.02106C3.64307 4.07876 3.65706 4.16046 3.70953 4.21102L3.93703 4.43025C4.00671 4.49741 4.12053 4.48706 4.18072 4.41184C4.36775 4.17805 4.47911 3.88527 4.47911 3.56788C4.47911 3.25048 4.36775 2.95771 4.18072 2.72391C4.12053 2.64869 4.00671 2.63835 3.93703 2.70551Z" fill="white"/>
<path d="M5.0742 1.83558C5.01417 1.77023 4.90729 1.77049 4.84327 1.8322L4.61736 2.0499C4.55685 2.1082 4.55741 2.19984 4.61332 2.26224C4.92752 2.61286 5.11777 3.06936 5.11777 3.56787C5.11777 4.06639 4.92752 4.52289 4.61332 4.87354C4.5574 4.93594 4.55686 5.02755 4.61736 5.08585L4.84327 5.30355C4.90729 5.36527 5.01417 5.36552 5.07423 5.30019C5.49852 4.8385 5.75641 4.23167 5.75641 3.56789C5.75641 2.9041 5.49852 2.29727 5.0742 1.83558Z" fill="white"/>
<path d="M5.9774 0.963783C5.9163 0.899881 5.81049 0.900069 5.74676 0.961503L5.52055 1.17949C5.45989 1.23795 5.46019 1.33024 5.51805 1.39131C6.06254 1.96599 6.39505 2.73024 6.39505 3.56788C6.39505 4.40552 6.06254 5.16975 5.51805 5.74444C5.4602 5.80551 5.45987 5.8978 5.52055 5.95627L5.74676 6.17424C5.81051 6.23568 5.91632 6.23586 5.97742 6.17196C6.63289 5.48637 7.03371 4.57138 7.03371 3.56788C7.03371 2.56435 6.63289 1.64936 5.9774 0.963783Z" fill="white"/>
</svg>
