<svg width="27" height="24" viewBox="0 0 27 24" fill="none" xmlns="http://www.w3.org/2000/svg">
<path d="M18.0627 0C14.9066 0 12.34 2.84463 12.34 6.34273C12.34 6.55293 12.3875 6.75857 12.406 6.9642C8.50366 6.55065 5.05277 4.46687 2.70889 1.27951C2.59963 1.12643 2.43059 1.04417 2.25331 1.05788C2.07808 1.07159 1.92141 1.18355 1.83483 1.35263C1.34214 2.2917 1.05972 3.37243 1.05972 4.53313C1.05972 5.93831 1.51324 7.22468 2.21414 8.28027C2.07808 8.21401 1.92966 8.17746 1.80185 8.09749C1.63899 8.00152 1.44315 8.00609 1.28442 8.1112C1.12569 8.2163 1.0288 8.40594 1.02674 8.60929V8.68241C1.02674 10.837 2.03273 12.7083 3.51698 13.8553C3.50049 13.853 3.484 13.8599 3.46751 13.8553C3.2861 13.821 3.10263 13.8919 2.981 14.0449C2.85938 14.198 2.82021 14.4105 2.87381 14.6047C3.46339 16.6359 4.96825 18.1874 6.83181 18.754C5.34756 19.7319 3.62624 20.3077 1.76886 20.3077C1.36688 20.3077 0.981386 20.2848 0.597954 20.2346C0.350579 20.198 0.11351 20.358 0.031052 20.6184C-0.053468 20.8789 0.0392979 21.1691 0.251628 21.313C2.63262 23.0061 5.45888 24 8.49747 24C13.4223 24 17.2855 21.7197 19.8767 18.4615C22.468 15.2034 23.8183 10.9718 23.8183 7.01904C23.8183 6.85225 23.8059 6.69002 23.8018 6.52551C24.7686 5.70526 25.6323 4.74334 26.3085 3.61919C26.4425 3.40213 26.4281 3.11196 26.2735 2.91089C26.1209 2.70983 25.8632 2.64813 25.6488 2.76009C25.3767 2.8949 25.0593 2.90861 24.7748 3.01599C25.15 2.46078 25.4715 1.86215 25.6653 1.18812C25.7313 0.95735 25.6591 0.703732 25.488 0.552933C25.3169 0.404417 25.0778 0.386138 24.8902 0.511805C23.9894 1.10358 22.9916 1.51942 21.9382 1.77304C20.9157 0.712871 19.5696 0 18.0627 0ZM18.0627 1.16984C19.4088 1.16984 20.6251 1.80731 21.4764 2.81493C21.6042 2.96116 21.7918 3.02285 21.9712 2.97944C22.6597 2.82864 23.3132 2.60701 23.9502 2.3214C23.5833 2.86976 23.1297 3.33816 22.5979 3.69231C22.3567 3.82254 22.2433 4.131 22.3319 4.41203C22.4185 4.69078 22.6824 4.85301 22.9442 4.78903C23.4719 4.7182 23.9419 4.48058 24.4449 4.33206C23.9935 4.87357 23.4987 5.36253 22.9607 5.79436C22.8143 5.91318 22.7339 6.1051 22.7463 6.30617C22.7545 6.54379 22.7628 6.77913 22.7628 7.01904C22.7628 10.6748 21.4971 14.6436 19.0851 17.6756C16.6732 20.7075 13.1316 22.8302 8.49747 22.8302C6.39272 22.8302 4.40547 22.3138 2.60994 21.4044C4.83632 21.2148 6.88953 20.342 8.54695 18.9002C8.72011 18.7471 8.78814 18.4912 8.71805 18.2582C8.64796 18.0251 8.45418 17.8652 8.23361 17.8583C6.49373 17.8241 5.03628 16.7022 4.25911 15.1165C4.28797 15.1165 4.31271 15.1165 4.34157 15.1165C4.86312 15.1165 5.37848 15.0434 5.8588 14.8972C6.08969 14.8218 6.24842 14.5842 6.24017 14.3168C6.23193 14.0495 6.06083 13.821 5.82582 13.7639C3.94783 13.3435 2.53985 11.6481 2.21414 9.54151C2.746 9.74486 3.29022 9.9048 3.8798 9.92536C4.12099 9.94136 4.33951 9.77456 4.41372 9.52094C4.48793 9.26733 4.39723 8.98858 4.19314 8.84692C2.93977 7.91698 2.11519 6.33359 2.11519 4.53313C2.11519 3.86596 2.27186 3.25362 2.47801 2.6687C5.11668 5.8789 8.81082 8.01066 12.9832 8.24372C13.1481 8.25286 13.3089 8.17746 13.4161 8.03808C13.5233 7.89642 13.5645 7.70906 13.5274 7.53085C13.447 7.15156 13.3955 6.74943 13.3955 6.34273C13.3955 3.47753 15.4776 1.16984 18.0627 1.16984Z" fill="white"/>
</svg>
